<?xml version="1.0" encoding="UTF-8"?>
<!DOCTYPE svg PUBLIC "-//W3C//DTD SVG 1.1//EN" "http://www.w3.org/Graphics/SVG/1.1/DTD/svg11.dtd">
<svg xmlns="http://www.w3.org/2000/svg" version="1.1" width="1024px" height="1024px" style="shape-rendering:geometricPrecision; text-rendering:geometricPrecision; image-rendering:optimizeQuality; fill-rule:evenodd; clip-rule:evenodd" xmlns:xlink="http://www.w3.org/1999/xlink">
<g><path style="opacity:0.041" fill="#faf7f6" d="M 787.5,89.5 C 781.504,90.262 775.17,90.9286 768.5,91.5C 595.833,91.5 423.167,91.5 250.5,91.5C 245.595,90.5546 240.595,90.2213 235.5,90.5C 235.918,89.7784 236.584,89.2784 237.5,89C 243.01,88.9495 248.343,88.2828 253.5,87C 425.5,86.3333 597.5,86.3333 769.5,87C 775.573,88.0799 781.573,88.9132 787.5,89.5 Z"/></g>
<g><path style="opacity:0.87" fill="#7d1e1d" d="M 250.5,91.5 C 423.167,91.5 595.833,91.5 768.5,91.5C 769.568,92.4345 770.901,92.7678 772.5,92.5C 687.836,93.8333 602.836,94.5 517.5,94.5C 432.5,94.3333 347.5,94.1667 262.5,94C 258.312,93.8238 254.312,93.3238 250.5,92.5C 250.5,92.1667 250.5,91.8333 250.5,91.5 Z"/></g>
<g><path style="opacity:0.009" fill="#f4f1ee" d="M 787.5,89.5 C 849.882,100.433 894.716,134.433 922,191.5C 924.965,198.375 927.465,205.375 929.5,212.5C 928.848,213.449 928.514,214.615 928.5,216C 931.918,228.26 933.751,240.76 934,253.5C 933.587,250.768 932.92,248.101 932,245.5C 931.517,246.448 931.351,247.448 931.5,248.5C 930.833,248.5 930.5,248.167 930.5,247.5C 923.449,184.17 891.782,138.003 835.5,109C 815.427,99.9193 794.427,94.4193 772.5,92.5C 770.901,92.7678 769.568,92.4345 768.5,91.5C 775.17,90.9286 781.504,90.262 787.5,89.5 Z"/></g>
<g><path style="opacity:1" fill="#8a2929" d="M 250.5,92.5 C 254.312,93.3238 258.312,93.8238 262.5,94C 347.5,94.1667 432.5,94.3333 517.5,94.5C 602.836,94.5 687.836,93.8333 772.5,92.5C 794.427,94.4193 815.427,99.9193 835.5,109C 891.782,138.003 923.449,184.17 930.5,247.5C 929.167,333.831 928.5,420.497 928.5,507.5C 928.667,594.167 928.833,680.833 929,767.5C 929.21,769.058 929.71,770.391 930.5,771.5C 925.098,836.38 893.764,883.713 836.5,913.5C 834.777,912.2 832.61,911.533 830,911.5C 821.554,912.145 821.721,912.978 830.5,914C 826.29,915.103 822.29,916.77 818.5,919C 809.326,919.494 800.326,919.828 791.5,920C 791.111,922.061 790.111,924.228 788.5,926.5C 605.501,927.667 422.501,927.833 239.5,927C 233.109,926.353 226.776,925.353 220.5,924C 219.333,923.5 218.5,922.667 218,921.5C 216.67,922.582 215.17,923.249 213.5,923.5C 150.776,904.107 111.776,862.44 96.5,798.5C 97.1471,797.726 97.4805,796.726 97.5,795.5C 97.0643,792.821 96.5643,790.155 96,787.5C 95.3333,602.833 95.3333,418.167 96,233.5C 99.3761,219.271 103.209,205.271 107.5,191.5C 131.542,140.954 170.876,109.121 225.5,96C 233.729,94.0386 242.063,92.872 250.5,92.5 Z"/></g>
<g><path style="opacity:0.2" fill="#f2efec" d="M 235.5,90.5 C 240.595,90.2213 245.595,90.5546 250.5,91.5C 250.5,91.8333 250.5,92.1667 250.5,92.5C 242.063,92.872 233.729,94.0386 225.5,96C 170.876,109.121 131.542,140.954 107.5,191.5C 103.671,199.472 100.505,207.806 98,216.5C 95.4996,226.895 93.3329,237.229 91.5,247.5C 90.7358,242.535 90.0691,237.869 89.5,233.5C 101.745,171.894 136.411,127.727 193.5,101C 201.5,98.3333 209.5,95.6667 217.5,93C 223.353,91.2473 229.353,90.414 235.5,90.5 Z"/></g>
<g><path style="opacity:0.059" fill="#fefefe" d="M 929.5,212.5 C 931.805,222.467 933.972,232.467 936,242.5C 936.667,421.5 936.667,600.5 936,779.5C 934.726,783.985 934.059,788.652 934,793.5C 933.154,797.388 931.987,801.055 930.5,804.5C 932.211,790.751 933.544,777.251 934.5,764C 933.874,763.25 933.374,762.416 933,761.5C 932.833,593.333 932.333,425.333 931.5,257.5C 931.5,254.5 931.5,251.5 931.5,248.5C 931.351,247.448 931.517,246.448 932,245.5C 932.92,248.101 933.587,250.768 934,253.5C 933.751,240.76 931.918,228.26 928.5,216C 928.514,214.615 928.848,213.449 929.5,212.5 Z"/></g>
<g><path style="opacity:0.06" fill="#f4eceb" d="M 89.5,233.5 C 90.0691,237.869 90.7358,242.535 91.5,247.5C 91.5,420.833 91.5,594.167 91.5,767.5C 91.222,775.17 90.8886,782.836 90.5,790.5C 89.7784,790.082 89.2784,789.416 89,788.5C 88.9455,783.321 88.2789,778.321 87,773.5C 86.3333,598.833 86.3333,424.167 87,249.5C 88.0676,244.094 88.9009,238.761 89.5,233.5 Z"/></g>
<g><path style="opacity:0.946" fill="#7f201f" d="M 107.5,191.5 C 103.209,205.271 99.3761,219.271 96,233.5C 95.3333,418.167 95.3333,602.833 96,787.5C 96.5643,790.155 97.0643,792.821 97.5,795.5C 97.4805,796.726 97.1471,797.726 96.5,798.5C 94.1549,788.135 92.4883,777.801 91.5,767.5C 91.5,594.167 91.5,420.833 91.5,247.5C 93.3329,237.229 95.4996,226.895 98,216.5C 100.505,207.806 103.671,199.472 107.5,191.5 Z"/></g>
<g><path style="opacity:1" fill="#f6b958" d="M 641.5,372.5 C 640.711,372.783 640.044,373.283 639.5,374C 680.165,374.5 720.832,374.667 761.5,374.5C 772.719,375.545 779.886,381.545 783,392.5C 783.667,417.167 783.667,441.833 783,466.5C 781.947,475.214 777.447,481.381 769.5,485C 684.21,486.161 598.876,486.661 513.5,486.5C 429.5,486.333 345.5,486.167 261.5,486C 253.48,482.649 248.313,476.816 246,468.5C 245.333,443.167 245.333,417.833 246,392.5C 248.984,382.011 255.817,376.011 266.5,374.5C 306.835,374.667 347.168,374.5 387.5,374C 386.956,373.283 386.289,372.783 385.5,372.5C 354.274,360.109 334.107,337.776 325,305.5C 319.201,273.539 330.035,249.039 357.5,232C 382.432,221.803 406.432,223.803 429.5,238C 450.411,252.579 467.578,270.746 481,292.5C 486.36,302.57 492.193,312.237 498.5,321.5C 507.996,318.854 517.496,318.854 527,321.5C 528.107,321.415 529.107,321.081 530,320.5C 542.955,294.213 559.788,270.713 580.5,250C 593.094,238.367 607.761,230.367 624.5,226C 658.627,220.313 683.461,232.813 699,263.5C 709.88,301.463 699.714,332.629 668.5,357C 660.098,363.201 651.098,368.368 641.5,372.5 Z"/></g>
<g><path style="opacity:1" fill="#892928" d="M 630.5,262.5 C 660.341,261.496 672.174,275.496 666,304.5C 663.262,311.644 659.262,317.978 654,323.5C 640.604,335.45 625.104,343.617 607.5,348C 588.451,353.181 569.118,355.681 549.5,355.5C 561.081,333.994 573.914,313.328 588,293.5C 599.011,278.629 613.178,268.296 630.5,262.5 Z"/></g>
<g><path style="opacity:1" fill="#8a2928" d="M 379.5,263.5 C 395.208,262.092 409.208,266.258 421.5,276C 430.78,284.274 438.947,293.441 446,303.5C 456.877,320.751 467.377,338.251 477.5,356C 446.813,356.596 417.813,349.93 390.5,336C 375.128,327.294 364.961,314.461 360,297.5C 357.511,280.859 364.011,269.526 379.5,263.5 Z"/></g>
<g><path style="opacity:1" fill="#af6043" d="M 385.5,372.5 C 386.289,372.783 386.956,373.283 387.5,374C 347.168,374.5 306.835,374.667 266.5,374.5C 306.167,373.833 345.833,373.167 385.5,372.5 Z"/></g>
<g><path style="opacity:1" fill="#af5e40" d="M 641.5,372.5 C 681.5,373.167 721.5,373.833 761.5,374.5C 720.832,374.667 680.165,374.5 639.5,374C 640.044,373.283 640.711,372.783 641.5,372.5 Z"/></g>
<g><path style="opacity:1" fill="#721a1b" d="M 754.5,504.5 C 594.666,504.167 434.999,504.5 275.5,505.5C 274.501,586.998 274.167,668.665 274.5,750.5C 273.17,669.637 273.17,587.47 274.5,504C 434.667,503.167 594.667,503.334 754.5,504.5 Z"/></g>
<g><path style="opacity:1" fill="#f1b95e" d="M 275.5,505.5 C 434.833,505.5 594.167,505.5 753.5,505.5C 753.5,587.5 753.5,669.5 753.5,751.5C 753.5,752.167 753.5,752.833 753.5,753.5C 752.549,752.081 752.216,750.415 752.5,748.5C 752.5,669.5 752.5,590.5 752.5,511.5C 752.5,509.833 752.5,508.167 752.5,506.5C 593.833,506.5 435.167,506.5 276.5,506.5C 276.833,588.668 276.499,670.668 275.5,752.5C 275.672,751.508 275.338,750.842 274.5,750.5C 274.167,668.665 274.501,586.998 275.5,505.5 Z"/></g>
<g><path style="opacity:1" fill="#f5b957" d="M 296.5,774.5 C 294.716,773.28 293.05,773.28 291.5,774.5C 286.878,772.867 283.545,769.867 281.5,765.5C 280.811,761.931 279.811,758.431 278.5,755C 279.496,673.862 279.829,592.695 279.5,511.5C 329.834,511.333 380.168,511.5 430.5,512C 433.557,511.893 435.891,513.06 437.5,515.5C 439.704,512.188 442.037,511.688 444.5,514C 442.975,515.009 441.308,515.509 439.5,515.5C 439.616,518.91 437.95,520.244 434.5,519.5C 434.633,514.728 433.3,514.562 430.5,519C 429.552,519.483 428.552,519.649 427.5,519.5C 427.649,520.552 427.483,521.552 427,522.5C 425.184,523.329 423.351,524.163 421.5,525C 423.301,525.317 423.634,525.984 422.5,527C 421.552,527.483 420.552,527.649 419.5,527.5C 419.824,524.32 418.49,523.153 415.5,524C 416.167,524.667 416.833,525.333 417.5,526C 415.233,526.276 412.9,526.943 410.5,528C 408.109,529.309 408.109,530.309 410.5,531C 408.223,532.739 406.556,532.239 405.5,529.5C 407.022,527.844 406.689,526.677 404.5,526C 408.648,525.542 409.481,523.709 407,520.5C 405.132,519.335 403.298,519.668 401.5,521.5C 402.872,523.62 402.205,524.62 399.5,524.5C 398.888,528.876 400.054,529.543 403,526.5C 404.619,528.956 405.119,531.456 404.5,534C 405.167,534.333 405.833,534.667 406.5,535C 404.941,535.98 403.274,536.813 401.5,537.5C 402.641,538.425 402.641,539.259 401.5,540C 403.929,540.451 404.096,541.285 402,542.5C 401.586,542.043 401.086,541.709 400.5,541.5C 398.649,543.184 396.982,545.017 395.5,547C 396.5,547.667 397.5,547.667 398.5,547C 399.833,546.333 399.833,545.667 398.5,545C 400.289,544.48 401.956,544.813 403.5,546C 401.339,548.68 402.172,549.18 406,547.5C 407.762,547.944 407.595,548.444 405.5,549C 406.167,549.333 406.833,549.667 407.5,550C 405.998,550.583 404.665,551.416 403.5,552.5C 402.39,555.923 400.724,558.256 398.5,559.5C 399.313,560.814 400.313,561.981 401.5,563C 399.668,563.748 398.001,564.748 396.5,566C 397.738,565.923 398.738,566.089 399.5,566.5C 397.5,567.333 395.5,568.167 393.5,569C 395.891,569.691 395.891,570.691 393.5,572C 395.207,572.195 396.874,572.195 398.5,572C 396.109,573.309 396.109,574.309 398.5,575C 396.203,576.263 395.37,578.097 396,580.5C 400.129,580.133 400.462,581.467 397,584.5C 395.334,583.66 395.167,584.16 396.5,586C 392.804,588.414 393.304,588.914 398,587.5C 400.152,589.277 399.985,590.777 397.5,592C 397.957,592.414 398.291,592.914 398.5,593.5C 395.123,594.345 392.79,596.345 391.5,599.5C 392.262,599.911 393.262,600.077 394.5,600C 393.167,601 393.167,602 394.5,603C 393.257,604.154 392.257,605.488 391.5,607C 394.112,607.741 395.778,606.741 396.5,604C 397.5,603.333 398.5,603.333 399.5,604C 397.974,605.589 396.807,607.423 396,609.5C 394.989,608.663 393.822,608.33 392.5,608.5C 392.84,611.144 392.173,613.477 390.5,615.5C 393.749,615.716 394.082,617.216 391.5,620C 394.232,620.413 396.899,621.08 399.5,622C 398.377,623.044 397.044,623.71 395.5,624C 396.668,625.406 396.335,626.572 394.5,627.5C 395.909,627.654 397.576,627.821 399.5,628C 400.833,629 400.833,630 399.5,631C 400.793,631.49 402.127,631.657 403.5,631.5C 403.45,629.41 404.45,628.077 406.5,627.5C 409.208,630.093 408.541,631.426 404.5,631.5C 404.238,632.978 404.571,634.311 405.5,635.5C 407.806,632.527 410.473,629.86 413.5,627.5C 413.109,628.718 413.776,629.552 415.5,630C 414.833,631.333 413.833,632.333 412.5,633C 414.132,634.31 415.799,634.81 417.5,634.5C 418.406,632.614 419.406,630.78 420.5,629C 420.167,628.667 419.833,628.333 419.5,628C 420.793,627.51 422.127,627.343 423.5,627.5C 423.819,623.7 424.819,623.534 426.5,627C 424.467,629.364 422.134,632.03 419.5,635C 420.191,636.067 420.691,637.234 421,638.5C 421.5,638 422,637.5 422.5,637C 422.167,636 421.833,635 421.5,634C 423.744,631.697 425.41,632.03 426.5,635C 424.503,636.153 424.17,637.653 425.5,639.5C 425.694,637.96 426.527,636.294 428,634.5C 429,635.833 430,635.833 431,634.5C 431.798,636.259 431.631,637.926 430.5,639.5C 429.808,638.975 429.308,638.308 429,637.5C 428.5,639.333 427.333,640.5 425.5,641C 427.929,641.451 428.096,642.285 426,643.5C 425.667,643.167 425.333,642.833 425,642.5C 424.196,645.757 422.363,648.257 419.5,650C 422.196,651.075 424.196,652.908 425.5,655.5C 429.508,651.219 430.175,651.553 427.5,656.5C 428.285,659.153 429.785,659.82 432,658.5C 432.202,660.256 432.702,661.922 433.5,663.5C 436.333,660.5 439.167,657.5 442,654.5C 443.667,655.5 445,656.833 446,658.5C 447.312,661.441 448.812,664.274 450.5,667C 448.68,667.979 447.513,669.479 447,671.5C 446.282,670.549 445.449,670.383 444.5,671C 446.09,672.046 447.59,673.213 449,674.5C 449.667,675.167 449.667,675.833 449,676.5C 445.483,680.017 441.983,683.517 438.5,687C 439,687.5 439.5,688 440,688.5C 442.167,687.667 443.667,686.167 444.5,684C 445.5,683.333 446.5,683.333 447.5,684C 446.167,684.667 446.167,685.333 447.5,686C 444.379,688.561 441.712,691.561 439.5,695C 440.041,698.042 440.207,701.209 440,704.5C 441.818,702.355 443.318,702.355 444.5,704.5C 443.055,706.063 441.389,707.396 439.5,708.5C 438.051,711.016 438.718,712.183 441.5,712C 442.071,710.795 442.738,709.628 443.5,708.5C 445.434,708.099 446.934,707.099 448,705.5C 448.333,705.833 448.667,706.167 449,706.5C 449.424,702.81 450.258,702.643 451.5,706C 448.264,708.781 445.264,711.781 442.5,715C 443.167,715.167 443.833,715.333 444.5,715.5C 445.709,713.599 447.709,712.265 450.5,711.5C 451.641,710.575 451.641,709.741 450.5,709C 454.934,706.45 456.6,705.95 455.5,707.5C 455.649,708.552 455.483,709.552 455,710.5C 452.476,712.691 450.309,715.191 448.5,718C 448.833,718.5 449.167,719 449.5,719.5C 450.167,718.5 450.833,717.5 451.5,716.5C 453.766,715.315 455.766,714.148 457.5,713C 457.167,713.333 456.833,713.667 456.5,714C 457.308,714.308 457.975,714.808 458.5,715.5C 456.619,716.762 455.286,718.429 454.5,720.5C 454.737,723.063 455.237,723.063 456,720.5C 458.065,722.874 457.899,725.04 455.5,727C 456.944,727.781 458.277,727.614 459.5,726.5C 461.61,722.441 464.61,721.274 468.5,723C 466.212,723.822 463.878,724.489 461.5,725C 462.167,725.333 462.833,725.667 463.5,726C 458.793,729.852 455.126,734.352 452.5,739.5C 453.5,739.5 454.5,739.5 455.5,739.5C 456.587,736.152 458.253,733.819 460.5,732.5C 461.192,733.025 461.692,733.692 462,734.5C 463.281,733.353 463.614,733.687 463,735.5C 461.055,736.863 458.888,737.697 456.5,738C 457.711,739.113 457.711,740.28 456.5,741.5C 453.569,743.352 451.069,745.685 449,748.5C 447.745,747.789 446.579,746.956 445.5,746C 447.345,744.577 449.345,743.41 451.5,742.5C 447.241,742.317 443.907,744.317 441.5,748.5C 440.268,747.855 438.935,747.689 437.5,748C 439.784,746.637 439.951,745.137 438,743.5C 436.062,746.106 433.562,747.939 430.5,749C 431.205,750.557 430.539,751.723 428.5,752.5C 427.585,751.672 426.919,750.672 426.5,749.5C 431.084,748.319 431.418,746.653 427.5,744.5C 426.759,747.939 424.759,748.272 421.5,745.5C 423.113,744.573 424.779,743.739 426.5,743C 425.614,741.098 425.947,739.265 427.5,737.5C 428.258,738.811 429.258,739.311 430.5,739C 429.167,738 429.167,737 430.5,736C 427.463,734.15 424.463,734.15 421.5,736C 425.799,736.769 426.632,738.936 424,742.5C 419.62,743.79 418.787,742.623 421.5,739C 420.287,737.37 419.454,735.536 419,733.5C 417.601,734.227 416.101,734.727 414.5,735C 415.833,735.333 417.167,735.667 418.5,736C 416.833,736.833 415.167,737.667 413.5,738.5C 412.289,739.274 412.289,740.107 413.5,741C 412.17,740.923 410.836,740.423 409.5,739.5C 406.59,739.544 405.59,740.71 406.5,743C 405.5,743.667 404.5,743.667 403.5,743C 404.255,740.867 405.588,739.2 407.5,738C 405.699,737.683 405.366,737.016 406.5,736C 403.145,736.795 402.645,735.628 405,732.5C 407.147,733.476 409.314,733.309 411.5,732C 410.167,731.667 408.833,731.333 407.5,731C 409.087,730.138 410.754,729.471 412.5,729C 411.809,727.933 411.309,726.766 411,725.5C 409.077,726.316 407.077,726.983 405,727.5C 403.989,727.108 403.489,726.441 403.5,725.5C 402.029,726.381 401.196,727.714 401,729.5C 399.796,728.529 399.296,727.529 399.5,726.5C 397.538,727.634 395.538,727.634 393.5,726.5C 391.541,726.875 389.707,727.541 388,728.5C 387.5,727.333 386.667,726.5 385.5,726C 386.071,724.795 386.738,723.628 387.5,722.5C 387.833,723.167 388.167,723.833 388.5,724.5C 389.308,724.192 389.975,723.692 390.5,723C 389.939,721.324 388.939,719.991 387.5,719C 391.354,717.953 395.02,716.453 398.5,714.5C 398,713.119 397,712.453 395.5,712.5C 390.898,713.882 390.565,713.382 394.5,711C 390.857,710.814 387.523,711.814 384.5,714C 385.167,714.333 385.833,714.667 386.5,715C 385.062,715.219 383.729,715.719 382.5,716.5C 384.108,717.242 385.775,717.409 387.5,717C 385.212,717.946 383.045,719.113 381,720.5C 380.667,720.167 380.333,719.833 380,719.5C 379.316,720.784 379.483,721.951 380.5,723C 378.833,723.333 377.167,723.667 375.5,724C 376.938,724.219 378.271,724.719 379.5,725.5C 378.371,727.529 378.871,727.863 381,726.5C 382.419,727.46 383.919,728.293 385.5,729C 384.833,729.333 384.167,729.667 383.5,730C 384.191,731.067 384.691,732.234 385,733.5C 385.333,733.167 385.667,732.833 386,732.5C 386.605,734.481 387.605,734.815 389,733.5C 389.903,734.701 391.069,735.535 392.5,736C 389.724,737.779 390.057,738.779 393.5,739C 392.663,740.011 392.33,741.178 392.5,742.5C 386.622,743.914 386.288,743.414 391.5,741C 389.5,740.5 387.5,740 385.5,739.5C 384.549,741.749 382.383,743.416 379,744.5C 378.667,743.833 378.333,743.167 378,742.5C 377.333,743.833 376.667,743.833 376,742.5C 375.333,746.5 374.667,746.5 374,742.5C 371.667,746.167 370.667,745.833 371,741.5C 369.933,742.191 368.766,742.691 367.5,743C 369.991,743.626 369.991,744.459 367.5,745.5C 368.989,745.533 370.322,746.033 371.5,747C 368.847,747.466 366.013,748.3 363,749.5C 362.812,747.939 363.645,747.272 365.5,747.5C 365.031,744.692 363.697,742.358 361.5,740.5C 360.406,741.868 360.74,743.035 362.5,744C 362,744.5 361.5,745 361,745.5C 360.131,742.237 358.797,741.904 357,744.5C 355.513,743.747 355.346,742.914 356.5,742C 355.833,741.667 355.167,741.333 354.5,741C 355.667,740.5 356.5,739.667 357,738.5C 357.333,738.833 357.667,739.167 358,739.5C 359.113,738.24 359.28,737.073 358.5,736C 356.579,735.64 354.912,734.806 353.5,733.5C 350.603,734.98 347.603,736.314 344.5,737.5C 343.757,736.092 342.923,734.759 342,733.5C 341.667,734.5 341.333,735.5 341,736.5C 340.02,734.941 339.187,733.274 338.5,731.5C 337.575,732.641 336.741,732.641 336,731.5C 335.51,730.207 335.343,728.873 335.5,727.5C 334.5,727.5 333.5,727.5 332.5,727.5C 332.833,730.5 331.5,731.833 328.5,731.5C 328.718,736.059 327.051,737.226 323.5,735C 327.5,734.333 327.5,733.667 323.5,733C 325.158,732.275 325.658,731.108 325,729.5C 322.201,731.388 319.534,733.388 317,735.5C 315.51,734.318 314.177,733.318 313,732.5C 312.691,733.766 312.191,734.933 311.5,736C 312.5,737 313.5,738 314.5,739C 309.521,744.311 304.187,749.311 298.5,754C 300.018,756.613 301.851,756.446 304,753.5C 305.824,754.749 305.657,755.915 303.5,757C 304.5,757.333 305.5,757.667 306.5,758C 303.997,759.549 303.997,761.216 306.5,763C 304.042,764.898 302.042,767.232 300.5,770C 300.905,770.945 301.572,771.612 302.5,772C 300.888,772.72 299.388,772.554 298,771.5C 296.844,772.502 296.344,773.502 296.5,774.5 Z"/></g>
<g><path style="opacity:1" fill="#f6b957" d="M 752.5,511.5 C 752.5,590.5 752.5,669.5 752.5,748.5C 751.673,743.349 751.173,738.016 751,732.5C 749.748,734.001 748.748,735.668 748,737.5C 747.667,736.167 747.333,734.833 747,733.5C 746.346,734.696 745.846,734.696 745.5,733.5C 747.435,732.932 748.768,731.765 749.5,730C 748.283,727.632 747.449,725.132 747,722.5C 746.333,723.833 745.667,723.833 745,722.5C 744.333,723.5 744.333,724.5 745,725.5C 745.654,724.304 746.154,724.304 746.5,725.5C 743.371,726.389 741.038,728.222 739.5,731C 740.416,731.374 741.25,731.874 742,732.5C 743.113,731.24 743.28,730.073 742.5,729C 744.744,726.697 746.41,727.03 747.5,730C 743.719,734.895 739.052,739.395 733.5,743.5C 732.49,746.026 733.157,748.192 735.5,750C 734.437,751.188 733.103,751.688 731.5,751.5C 731.5,750.5 731.5,749.5 731.5,748.5C 729.692,748.509 728.025,748.009 726.5,747C 729.395,745.06 731.728,742.56 733.5,739.5C 733.167,738.5 732.5,737.833 731.5,737.5C 729.834,739.333 727.834,740.666 725.5,741.5C 726.46,742.812 726.294,744.146 725,745.5C 723.933,744.809 722.766,744.309 721.5,744C 722.167,743.667 722.833,743.333 723.5,743C 722.3,741.969 720.966,741.135 719.5,740.5C 717.431,740.824 717.098,741.658 718.5,743C 718,743.5 717.5,744 717,744.5C 715.988,742.136 714.655,740.802 713,740.5C 711.826,742.671 709.993,743.671 707.5,743.5C 707.137,741.089 708.137,739.589 710.5,739C 709.874,738.25 709.374,737.416 709,736.5C 708.692,737.308 708.192,737.975 707.5,738.5C 707.891,737.282 707.224,736.448 705.5,736C 707.008,734.493 708.341,732.827 709.5,731C 708.128,730.598 706.795,730.098 705.5,729.5C 704.17,731.347 704.503,732.847 706.5,734C 703.24,734.975 700.073,736.142 697,737.5C 694.442,735.862 691.609,734.696 688.5,734C 689.167,733.667 689.833,733.333 690.5,733C 688.5,732.667 686.5,732.333 684.5,732C 686.657,730.915 686.824,729.749 685,728.5C 684.676,730.569 683.842,730.902 682.5,729.5C 681.304,729.846 681.304,730.346 682.5,731C 680.913,731.862 679.246,732.529 677.5,733C 678.956,733.423 679.456,734.256 679,735.5C 674.304,734.086 673.804,734.586 677.5,737C 675.14,737.263 673.14,736.43 671.5,734.5C 670.099,736.277 668.599,737.944 667,739.5C 665.881,738.448 665.381,737.281 665.5,736C 666.167,735.667 666.833,735.333 667.5,735C 663.252,733.983 659.586,734.983 656.5,738C 658.384,738.216 660.051,738.883 661.5,740C 658.756,739.009 656.089,739.343 653.5,741C 655.167,741.333 656.833,741.667 658.5,742C 656.008,742.356 653.342,743.19 650.5,744.5C 649.289,745.274 649.289,746.107 650.5,747C 647.768,747.905 647.101,747.238 648.5,745C 648.37,743.941 647.87,743.108 647,742.5C 645.324,743.061 643.991,744.061 643,745.5C 641.475,745.112 639.808,745.112 638,745.5C 637.173,744.338 636.34,743.171 635.5,742C 635.645,741.228 635.978,740.561 636.5,740C 638.631,739.457 640.631,738.624 642.5,737.5C 641.603,737.331 640.603,736.998 639.5,736.5C 640.376,735.749 641.376,735.249 642.5,735C 640.08,734.313 637.913,734.813 636,736.5C 635.196,735.196 634.029,734.529 632.5,734.5C 630.462,735.634 628.462,735.634 626.5,734.5C 624.579,736.469 624.579,737.969 626.5,739C 625.5,739.333 624.5,739.667 623.5,740C 625.608,740.36 627.608,741.027 629.5,742C 624.25,742.193 619.083,742.693 614,743.5C 612.594,742.332 611.428,742.665 610.5,744.5C 609.304,744.154 609.304,743.654 610.5,743C 608.765,742.349 607.098,742.515 605.5,743.5C 604.15,741.98 602.817,741.313 601.5,741.5C 603.328,740.205 605.328,739.205 607.5,738.5C 606.975,737.808 606.308,737.308 605.5,737C 607.087,736.138 608.754,735.471 610.5,735C 607.581,734.448 604.914,735.115 602.5,737C 602.833,737.333 603.167,737.667 603.5,738C 601.68,738.979 600.513,740.479 600,742.5C 599.667,742.167 599.333,741.833 599,741.5C 597.782,743.019 596.282,744.186 594.5,745C 596.301,745.317 596.634,745.984 595.5,747C 592.851,747.452 590.351,748.286 588,749.5C 585.23,748.385 582.73,746.885 580.5,745C 581.696,744.346 581.696,743.846 580.5,743.5C 578.941,744.074 577.441,744.74 576,745.5C 575.833,745.167 575.667,744.833 575.5,744.5C 576.376,743.749 577.376,743.249 578.5,743C 576.623,742.424 574.789,742.591 573,743.5C 571.37,742.453 569.704,741.453 568,740.5C 564.374,747.182 562.874,746.849 563.5,739.5C 564.552,739.649 565.552,739.483 566.5,739C 567.167,737 568.5,735.667 570.5,735C 569.874,734.25 569.374,733.416 569,732.5C 566.509,735.835 563.342,738.168 559.5,739.5C 559.561,737.408 560.561,735.908 562.5,735C 561.874,734.25 561.374,733.416 561,732.5C 557.5,736 554,739.5 550.5,743C 549.552,743.483 548.552,743.649 547.5,743.5C 547.5,742.167 547.5,740.833 547.5,739.5C 550.713,738.836 552.879,736.836 554,733.5C 554.333,734.167 554.667,734.833 555,735.5C 555.49,734.207 555.657,732.873 555.5,731.5C 557.124,731.36 558.29,732.027 559,733.5C 559.066,730.724 560.232,728.558 562.5,727C 561.167,726.333 561.167,725.667 562.5,725C 561.747,723.513 560.914,723.346 560,724.5C 558.762,721.074 559.929,719.408 563.5,719.5C 563.565,716.002 564.899,715.502 567.5,718C 566.346,718.914 566.513,719.747 568,720.5C 569.507,719.495 570.673,718.162 571.5,716.5C 572.716,715.998 573.883,715.665 575,715.5C 575.167,715.833 575.333,716.167 575.5,716.5C 574.624,717.251 573.624,717.751 572.5,718C 573.167,718.333 573.833,718.667 574.5,719C 571.904,720.136 569.237,720.969 566.5,721.5C 566.5,722.5 566.5,723.5 566.5,724.5C 565.448,724.351 564.448,724.517 563.5,725C 566.228,725.639 566.728,726.806 565,728.5C 564.667,728.167 564.333,727.833 564,727.5C 561.979,732.314 563.146,733.314 567.5,730.5C 569.46,728.709 570.793,726.543 571.5,724C 573.044,723.71 574.377,723.044 575.5,722C 573.205,721.016 573.539,720.183 576.5,719.5C 576.19,721.201 576.69,722.868 578,724.5C 578.667,723.167 579.333,723.167 580,724.5C 583.097,723.711 583.264,722.544 580.5,721C 581.167,720.667 581.833,720.333 582.5,720C 581.216,719.316 580.049,719.483 579,720.5C 578.5,719.5 578,718.5 577.5,717.5C 579.304,716.232 581.304,715.565 583.5,715.5C 583.608,713.217 584.441,711.217 586,709.5C 586.333,709.833 586.667,710.167 587,710.5C 587.906,708.388 589.406,707.555 591.5,708C 588.833,708.667 588.833,709.333 591.5,710C 590.377,711.044 589.044,711.71 587.5,712C 587.944,713.533 588.277,715.033 588.5,716.5C 589.729,717.281 591.062,717.781 592.5,718C 589.734,718.813 588.067,720.646 587.5,723.5C 588.557,723.906 589.891,723.906 591.5,723.5C 591.325,720.671 592.658,719.004 595.5,718.5C 594.833,718.167 594.167,717.833 593.5,717.5C 595.22,716.066 597.22,715.233 599.5,715C 598.044,714.577 597.544,713.744 598,712.5C 598.333,712.833 598.667,713.167 599,713.5C 602.252,711.645 605.086,709.312 607.5,706.5C 607.291,705.914 606.957,705.414 606.5,705C 607.672,704.581 608.672,703.915 609.5,703C 605.517,703.275 605.517,702.275 609.5,700C 608.833,699.667 608.167,699.333 607.5,699C 608.833,698.667 610.167,698.333 611.5,698C 609.807,696.653 608.14,696.153 606.5,696.5C 607.376,695.749 608.376,695.249 609.5,695C 607.699,694.683 607.366,694.016 608.5,693C 609.766,692.691 610.933,692.191 612,691.5C 612.333,691.833 612.667,692.167 613,692.5C 613.492,691.451 613.326,690.451 612.5,689.5C 614.113,688.573 615.779,687.739 617.5,687C 613.614,686.421 613.614,685.588 617.5,684.5C 618.396,685.506 619.062,685.506 619.5,684.5C 618.311,683.571 616.978,683.238 615.5,683.5C 615.5,682.167 615.5,680.833 615.5,679.5C 614.167,679.5 612.833,679.5 611.5,679.5C 611.077,676.757 612.244,675.424 615,675.5C 617.525,676.198 619.525,677.531 621,679.5C 622.487,678.747 622.654,677.914 621.5,677C 622.328,676.085 623.328,675.419 624.5,675C 622.76,673.173 621.093,673.34 619.5,675.5C 618.833,674.833 618.167,674.167 617.5,673.5C 616.284,674.002 615.117,674.335 614,674.5C 614.488,670.77 613.155,670.436 610,673.5C 609.667,673.167 609.333,672.833 609,672.5C 608.707,676.98 607.874,677.313 606.5,673.5C 609.003,672.244 610.67,670.744 611.5,669C 608.314,666.676 606.648,667.509 606.5,671.5C 605.448,671.649 604.448,671.483 603.5,671C 604.634,669.984 604.301,669.317 602.5,669C 607.037,665.298 611.037,661.131 614.5,656.5C 615.989,656.467 617.322,655.967 618.5,655C 617.289,654.107 617.289,653.274 618.5,652.5C 619.795,651.902 621.128,651.402 622.5,651C 621.692,650.692 621.025,650.192 620.5,649.5C 622.369,648.376 624.369,647.543 626.5,647C 624.765,646.349 623.098,646.515 621.5,647.5C 620.069,647.023 618.736,646.357 617.5,645.5C 618.506,644.604 618.506,643.938 617.5,643.5C 616.328,643.919 615.328,644.585 614.5,645.5C 616.107,647.582 617.774,649.082 619.5,650C 618.437,651.188 617.103,651.688 615.5,651.5C 615.67,652.822 615.337,653.989 614.5,655C 611.068,657.12 608.068,659.12 605.5,661C 606.711,661.893 606.711,662.726 605.5,663.5C 604.354,662.855 603.354,662.022 602.5,661C 604.019,659.649 605.352,658.149 606.5,656.5C 605.675,655.614 604.675,655.281 603.5,655.5C 603.833,658.5 602.5,659.833 599.5,659.5C 599.435,656.154 600.768,653.654 603.5,652C 602.207,651.51 600.873,651.343 599.5,651.5C 600.274,648.115 601.607,645.449 603.5,643.5C 604.5,643.5 605.5,643.5 606.5,643.5C 606.5,642.167 606.5,640.833 606.5,639.5C 607.873,639.657 609.207,639.49 610.5,639C 610.043,638.586 609.709,638.086 609.5,637.5C 610.5,636.667 611.5,635.833 612.5,635C 610.43,634.621 608.93,635.455 608,637.5C 606.244,635.941 606.244,634.274 608,632.5C 608.718,633.451 609.551,633.617 610.5,633C 608.433,629.489 609.766,627.656 614.5,627.5C 614.657,626.127 614.49,624.793 614,623.5C 613.667,623.833 613.333,624.167 613,624.5C 612.097,623.299 610.931,622.465 609.5,622C 611.167,621 612.833,620 614.5,619C 613.167,618 613.167,617 614.5,616C 613.289,615.213 612.289,614.546 611.5,614C 613.023,612.146 614.856,610.646 617,609.5C 616.923,610.83 616.423,612.164 615.5,613.5C 615.556,614.737 616.056,615.737 617,616.5C 617.967,615.322 618.467,613.989 618.5,612.5C 619.729,611.719 621.062,611.219 622.5,611C 621.742,609.636 622.242,608.469 624,607.5C 624.741,608.641 625.575,608.641 626.5,607.5C 627.429,606.311 627.762,604.978 627.5,603.5C 630.899,602.984 634.232,602.15 637.5,601C 635.012,599.315 635.345,597.981 638.5,597C 636.122,596.026 636.456,595.359 639.5,595C 638.167,594 638.167,593 639.5,592C 637.11,591.698 635.11,590.864 633.5,589.5C 634.912,588.194 636.579,587.36 638.5,587C 637.289,586.107 637.289,585.274 638.5,584.5C 639.795,583.902 641.128,583.402 642.5,583C 640.226,582.53 638.226,581.53 636.5,580C 637.448,579.517 638.448,579.351 639.5,579.5C 639.325,576.671 640.658,575.004 643.5,574.5C 642.098,573.158 642.431,572.324 644.5,572C 646.641,571.116 648.307,571.616 649.5,573.5C 647.238,575.508 647.738,575.841 651,574.5C 651.617,573.551 651.451,572.718 650.5,572C 653.985,571.507 654.485,570.007 652,567.5C 650.47,568.636 649.137,569.636 648,570.5C 647.08,570.07 646.247,569.736 645.5,569.5C 646.912,568.194 648.579,567.36 650.5,567C 650.381,565.719 650.881,564.552 652,563.5C 652.318,565.061 653.151,566.228 654.5,567C 654.167,567.333 653.833,567.667 653.5,568C 659.235,567.106 659.568,567.773 654.5,570C 656.112,570.72 657.612,570.554 659,569.5C 659.667,570.167 660.333,570.833 661,571.5C 663,570.833 665,570.167 667,569.5C 667.167,569.833 667.333,570.167 667.5,570.5C 665.922,571.298 664.256,571.798 662.5,572C 661.549,572.718 661.383,573.551 662,574.5C 665.666,572.904 669.499,571.571 673.5,570.5C 674.554,570.68 675.554,571.013 676.5,571.5C 677.262,570.372 677.929,569.205 678.5,568C 676.089,568.052 673.756,568.385 671.5,569C 673.49,567.249 675.823,566.249 678.5,566C 677.529,564.796 676.529,564.296 675.5,564.5C 677.611,563.152 679.445,563.485 681,565.5C 683.333,564.167 685.667,564.167 688,565.5C 691.357,564.258 691.19,563.424 687.5,563C 689.665,561.436 691.332,561.603 692.5,563.5C 693.541,561.009 694.374,561.009 695,563.5C 697.419,561.406 699.586,561.406 701.5,563.5C 703.731,563.147 705.731,562.314 707.5,561C 706.049,561.263 704.716,561.096 703.5,560.5C 704.376,559.749 705.376,559.249 706.5,559C 705.542,557.853 705.875,556.853 707.5,556C 706.833,554.667 706.167,553.333 705.5,552C 708.346,550.6 708.679,549.1 706.5,547.5C 705.108,548.605 703.941,549.939 703,551.5C 702.383,550.551 702.549,549.718 703.5,549C 701.905,549.617 700.572,549.284 699.5,548C 702.06,547.773 703.726,546.44 704.5,544C 705.448,543.517 706.448,543.351 707.5,543.5C 707.762,542.022 707.429,540.689 706.5,539.5C 701.608,541.015 700.941,540.515 704.5,538C 704.043,537.586 703.709,537.086 703.5,536.5C 701.587,535.949 699.587,535.782 697.5,536C 695.766,534.266 693.766,532.932 691.5,532C 693.788,531.178 696.122,530.511 698.5,530C 696.532,528.456 694.365,527.289 692,526.5C 690.991,528.025 690.491,529.692 690.5,531.5C 689.448,531.351 688.448,531.517 687.5,532C 688.696,532.654 688.696,533.154 687.5,533.5C 685.286,533.043 683.286,533.043 681.5,533.5C 682.912,532.194 684.579,531.36 686.5,531C 685.816,529.307 684.816,527.807 683.5,526.5C 684.648,524.851 685.981,523.351 687.5,522C 686.494,518.786 684.327,518.619 681,521.5C 680.085,520.672 679.419,519.672 679,518.5C 676.687,520.037 674.187,520.537 671.5,520C 672.308,519.692 672.975,519.192 673.5,518.5C 672.372,517.738 671.205,517.071 670,516.5C 669.383,517.449 669.549,518.282 670.5,519C 669.5,519.333 668.5,519.667 667.5,520C 667.07,520.92 666.736,521.753 666.5,522.5C 665.193,521.184 663.693,520.184 662,519.5C 655.121,519.77 648.287,520.103 641.5,520.5C 638.388,520.194 635.888,518.861 634,516.5C 632.85,517.424 631.85,517.424 631,516.5C 629.796,517.471 629.296,518.471 629.5,519.5C 627.833,518.167 626.167,516.833 624.5,515.5C 624.511,516.441 624.011,517.108 623,517.5C 621.775,517.138 620.609,516.638 619.5,516C 621.848,515.654 623.681,514.487 625,512.5C 625.589,514.863 627.089,515.863 629.5,515.5C 629.36,513.876 630.027,512.71 631.5,512C 671.832,511.5 712.165,511.333 752.5,511.5 Z"/></g>
<g><path style="opacity:1" fill="#d2924e" d="M 275.5,505.5 C 434.999,504.5 594.666,504.167 754.5,504.5C 754.833,587.002 754.499,669.335 753.5,751.5C 753.5,669.5 753.5,587.5 753.5,505.5C 594.167,505.5 434.833,505.5 275.5,505.5 Z"/></g>
<g><path style="opacity:1" fill="#f5b958" d="M 752.5,511.5 C 712.165,511.333 671.832,511.5 631.5,512C 630.027,512.71 629.36,513.876 629.5,515.5C 627.089,515.863 625.589,514.863 625,512.5C 623.681,514.487 621.848,515.654 619.5,516C 620.609,516.638 621.775,517.138 623,517.5C 624.011,517.108 624.511,516.441 624.5,515.5C 626.167,516.833 627.833,518.167 629.5,519.5C 629.296,518.471 629.796,517.471 631,516.5C 631.85,517.424 632.85,517.424 634,516.5C 635.888,518.861 638.388,520.194 641.5,520.5C 648.287,520.103 655.121,519.77 662,519.5C 663.693,520.184 665.193,521.184 666.5,522.5C 666.736,521.753 667.07,520.92 667.5,520C 668.5,519.667 669.5,519.333 670.5,519C 669.549,518.282 669.383,517.449 670,516.5C 671.205,517.071 672.372,517.738 673.5,518.5C 672.975,519.192 672.308,519.692 671.5,520C 674.187,520.537 676.687,520.037 679,518.5C 679.419,519.672 680.085,520.672 681,521.5C 684.327,518.619 686.494,518.786 687.5,522C 685.981,523.351 684.648,524.851 683.5,526.5C 684.816,527.807 685.816,529.307 686.5,531C 684.579,531.36 682.912,532.194 681.5,533.5C 683.286,533.043 685.286,533.043 687.5,533.5C 688.696,533.154 688.696,532.654 687.5,532C 688.448,531.517 689.448,531.351 690.5,531.5C 690.491,529.692 690.991,528.025 692,526.5C 694.365,527.289 696.532,528.456 698.5,530C 696.122,530.511 693.788,531.178 691.5,532C 693.766,532.932 695.766,534.266 697.5,536C 699.587,535.782 701.587,535.949 703.5,536.5C 703.709,537.086 704.043,537.586 704.5,538C 700.941,540.515 701.608,541.015 706.5,539.5C 707.429,540.689 707.762,542.022 707.5,543.5C 706.448,543.351 705.448,543.517 704.5,544C 703.726,546.44 702.06,547.773 699.5,548C 700.572,549.284 701.905,549.617 703.5,549C 702.549,549.718 702.383,550.551 703,551.5C 703.941,549.939 705.108,548.605 706.5,547.5C 708.679,549.1 708.346,550.6 705.5,552C 706.167,553.333 706.833,554.667 707.5,556C 705.875,556.853 705.542,557.853 706.5,559C 705.376,559.249 704.376,559.749 703.5,560.5C 704.716,561.096 706.049,561.263 707.5,561C 705.731,562.314 703.731,563.147 701.5,563.5C 699.586,561.406 697.419,561.406 695,563.5C 694.374,561.009 693.541,561.009 692.5,563.5C 691.332,561.603 689.665,561.436 687.5,563C 691.19,563.424 691.357,564.258 688,565.5C 685.667,564.167 683.333,564.167 681,565.5C 679.445,563.485 677.611,563.152 675.5,564.5C 676.529,564.296 677.529,564.796 678.5,566C 675.823,566.249 673.49,567.249 671.5,569C 673.756,568.385 676.089,568.052 678.5,568C 677.929,569.205 677.262,570.372 676.5,571.5C 675.554,571.013 674.554,570.68 673.5,570.5C 669.499,571.571 665.666,572.904 662,574.5C 661.383,573.551 661.549,572.718 662.5,572C 664.256,571.798 665.922,571.298 667.5,570.5C 667.333,570.167 667.167,569.833 667,569.5C 665,570.167 663,570.833 661,571.5C 660.333,570.833 659.667,570.167 659,569.5C 657.612,570.554 656.112,570.72 654.5,570C 659.568,567.773 659.235,567.106 653.5,568C 653.833,567.667 654.167,567.333 654.5,567C 653.151,566.228 652.318,565.061 652,563.5C 650.881,564.552 650.381,565.719 650.5,567C 648.579,567.36 646.912,568.194 645.5,569.5C 646.247,569.736 647.08,570.07 648,570.5C 649.137,569.636 650.47,568.636 652,567.5C 654.485,570.007 653.985,571.507 650.5,572C 651.451,572.718 651.617,573.551 651,574.5C 647.738,575.841 647.238,575.508 649.5,573.5C 648.307,571.616 646.641,571.116 644.5,572C 642.431,572.324 642.098,573.158 643.5,574.5C 640.658,575.004 639.325,576.671 639.5,579.5C 638.448,579.351 637.448,579.517 636.5,580C 638.226,581.53 640.226,582.53 642.5,583C 641.128,583.402 639.795,583.902 638.5,584.5C 637.289,585.274 637.289,586.107 638.5,587C 636.579,587.36 634.912,588.194 633.5,589.5C 635.11,590.864 637.11,591.698 639.5,592C 638.167,593 638.167,594 639.5,595C 636.456,595.359 636.122,596.026 638.5,597C 635.345,597.981 635.012,599.315 637.5,601C 634.232,602.15 630.899,602.984 627.5,603.5C 627.762,604.978 627.429,606.311 626.5,607.5C 625.575,608.641 624.741,608.641 624,607.5C 622.242,608.469 621.742,609.636 622.5,611C 621.062,611.219 619.729,611.719 618.5,612.5C 618.467,613.989 617.967,615.322 617,616.5C 616.056,615.737 615.556,614.737 615.5,613.5C 616.423,612.164 616.923,610.83 617,609.5C 614.856,610.646 613.023,612.146 611.5,614C 612.289,614.546 613.289,615.213 614.5,616C 613.167,617 613.167,618 614.5,619C 612.833,620 611.167,621 609.5,622C 610.931,622.465 612.097,623.299 613,624.5C 613.333,624.167 613.667,623.833 614,623.5C 614.49,624.793 614.657,626.127 614.5,627.5C 609.766,627.656 608.433,629.489 610.5,633C 609.551,633.617 608.718,633.451 608,632.5C 606.244,634.274 606.244,635.941 608,637.5C 608.93,635.455 610.43,634.621 612.5,635C 611.5,635.833 610.5,636.667 609.5,637.5C 609.709,638.086 610.043,638.586 610.5,639C 609.207,639.49 607.873,639.657 606.5,639.5C 606.5,640.833 606.5,642.167 606.5,643.5C 605.5,643.5 604.5,643.5 603.5,643.5C 601.607,645.449 600.274,648.115 599.5,651.5C 600.873,651.343 602.207,651.51 603.5,652C 600.768,653.654 599.435,656.154 599.5,659.5C 602.5,659.833 603.833,658.5 603.5,655.5C 604.675,655.281 605.675,655.614 606.5,656.5C 605.352,658.149 604.019,659.649 602.5,661C 603.354,662.022 604.354,662.855 605.5,663.5C 606.711,662.726 606.711,661.893 605.5,661C 608.068,659.12 611.068,657.12 614.5,655C 615.337,653.989 615.67,652.822 615.5,651.5C 617.103,651.688 618.437,651.188 619.5,650C 617.774,649.082 616.107,647.582 614.5,645.5C 615.328,644.585 616.328,643.919 617.5,643.5C 618.506,643.938 618.506,644.604 617.5,645.5C 618.736,646.357 620.069,647.023 621.5,647.5C 623.098,646.515 624.765,646.349 626.5,647C 624.369,647.543 622.369,648.376 620.5,649.5C 621.025,650.192 621.692,650.692 622.5,651C 621.128,651.402 619.795,651.902 618.5,652.5C 617.289,653.274 617.289,654.107 618.5,655C 617.322,655.967 615.989,656.467 614.5,656.5C 611.037,661.131 607.037,665.298 602.5,669C 604.301,669.317 604.634,669.984 603.5,671C 604.448,671.483 605.448,671.649 606.5,671.5C 606.648,667.509 608.314,666.676 611.5,669C 610.67,670.744 609.003,672.244 606.5,673.5C 607.874,677.313 608.707,676.98 609,672.5C 609.333,672.833 609.667,673.167 610,673.5C 613.155,670.436 614.488,670.77 614,674.5C 615.117,674.335 616.284,674.002 617.5,673.5C 618.167,674.167 618.833,674.833 619.5,675.5C 621.093,673.34 622.76,673.173 624.5,675C 623.328,675.419 622.328,676.085 621.5,677C 622.654,677.914 622.487,678.747 621,679.5C 619.525,677.531 617.525,676.198 615,675.5C 612.244,675.424 611.077,676.757 611.5,679.5C 612.833,679.5 614.167,679.5 615.5,679.5C 615.5,680.833 615.5,682.167 615.5,683.5C 616.978,683.238 618.311,683.571 619.5,684.5C 619.062,685.506 618.396,685.506 617.5,684.5C 613.614,685.588 613.614,686.421 617.5,687C 615.779,687.739 614.113,688.573 612.5,689.5C 613.326,690.451 613.492,691.451 613,692.5C 612.667,692.167 612.333,691.833 612,691.5C 610.933,692.191 609.766,692.691 608.5,693C 607.366,694.016 607.699,694.683 609.5,695C 608.376,695.249 607.376,695.749 606.5,696.5C 608.14,696.153 609.807,696.653 611.5,698C 610.167,698.333 608.833,698.667 607.5,699C 608.167,699.333 608.833,699.667 609.5,700C 605.517,702.275 605.517,703.275 609.5,703C 608.672,703.915 607.672,704.581 606.5,705C 606.957,705.414 607.291,705.914 607.5,706.5C 605.086,709.312 602.252,711.645 599,713.5C 598.667,713.167 598.333,712.833 598,712.5C 597.544,713.744 598.044,714.577 599.5,715C 597.22,715.233 595.22,716.066 593.5,717.5C 594.167,717.833 594.833,718.167 595.5,718.5C 592.658,719.004 591.325,720.671 591.5,723.5C 589.891,723.906 588.557,723.906 587.5,723.5C 588.067,720.646 589.734,718.813 592.5,718C 591.062,717.781 589.729,717.281 588.5,716.5C 588.277,715.033 587.944,713.533 587.5,712C 589.044,711.71 590.377,711.044 591.5,710C 588.833,709.333 588.833,708.667 591.5,708C 589.406,707.555 587.906,708.388 587,710.5C 586.667,710.167 586.333,709.833 586,709.5C 584.441,711.217 583.608,713.217 583.5,715.5C 581.304,715.565 579.304,716.232 577.5,717.5C 578,718.5 578.5,719.5 579,720.5C 580.049,719.483 581.216,719.316 582.5,720C 581.833,720.333 581.167,720.667 580.5,721C 583.264,722.544 583.097,723.711 580,724.5C 579.333,723.167 578.667,723.167 578,724.5C 576.69,722.868 576.19,721.201 576.5,719.5C 573.539,720.183 573.205,721.016 575.5,722C 574.377,723.044 573.044,723.71 571.5,724C 570.793,726.543 569.46,728.709 567.5,730.5C 563.146,733.314 561.979,732.314 564,727.5C 564.333,727.833 564.667,728.167 565,728.5C 566.728,726.806 566.228,725.639 563.5,725C 564.448,724.517 565.448,724.351 566.5,724.5C 566.5,723.5 566.5,722.5 566.5,721.5C 569.237,720.969 571.904,720.136 574.5,719C 573.833,718.667 573.167,718.333 572.5,718C 573.624,717.751 574.624,717.251 575.5,716.5C 575.333,716.167 575.167,715.833 575,715.5C 573.883,715.665 572.716,715.998 571.5,716.5C 570.673,718.162 569.507,719.495 568,720.5C 566.513,719.747 566.346,718.914 567.5,718C 564.899,715.502 563.565,716.002 563.5,719.5C 559.929,719.408 558.762,721.074 560,724.5C 560.914,723.346 561.747,723.513 562.5,725C 561.167,725.667 561.167,726.333 562.5,727C 560.232,728.558 559.066,730.724 559,733.5C 558.29,732.027 557.124,731.36 555.5,731.5C 555.657,732.873 555.49,734.207 555,735.5C 554.667,734.833 554.333,734.167 554,733.5C 552.879,736.836 550.713,738.836 547.5,739.5C 547.5,740.833 547.5,742.167 547.5,743.5C 548.552,743.649 549.552,743.483 550.5,743C 554,739.5 557.5,736 561,732.5C 561.374,733.416 561.874,734.25 562.5,735C 560.561,735.908 559.561,737.408 559.5,739.5C 563.342,738.168 566.509,735.835 569,732.5C 569.374,733.416 569.874,734.25 570.5,735C 568.5,735.667 567.167,737 566.5,739C 565.552,739.483 564.552,739.649 563.5,739.5C 562.874,746.849 564.374,747.182 568,740.5C 569.704,741.453 571.37,742.453 573,743.5C 574.789,742.591 576.623,742.424 578.5,743C 577.376,743.249 576.376,743.749 575.5,744.5C 575.667,744.833 575.833,745.167 576,745.5C 577.441,744.74 578.941,744.074 580.5,743.5C 581.696,743.846 581.696,744.346 580.5,745C 582.73,746.885 585.23,748.385 588,749.5C 590.351,748.286 592.851,747.452 595.5,747C 596.634,745.984 596.301,745.317 594.5,745C 596.282,744.186 597.782,743.019 599,741.5C 599.333,741.833 599.667,742.167 600,742.5C 600.513,740.479 601.68,738.979 603.5,738C 603.167,737.667 602.833,737.333 602.5,737C 604.914,735.115 607.581,734.448 610.5,735C 608.754,735.471 607.087,736.138 605.5,737C 606.308,737.308 606.975,737.808 607.5,738.5C 605.328,739.205 603.328,740.205 601.5,741.5C 602.817,741.313 604.15,741.98 605.5,743.5C 607.098,742.515 608.765,742.349 610.5,743C 609.304,743.654 609.304,744.154 610.5,744.5C 611.428,742.665 612.594,742.332 614,743.5C 619.083,742.693 624.25,742.193 629.5,742C 627.608,741.027 625.608,740.36 623.5,740C 624.5,739.667 625.5,739.333 626.5,739C 624.579,737.969 624.579,736.469 626.5,734.5C 628.462,735.634 630.462,735.634 632.5,734.5C 634.029,734.529 635.196,735.196 636,736.5C 637.913,734.813 640.08,734.313 642.5,735C 641.376,735.249 640.376,735.749 639.5,736.5C 640.603,736.998 641.603,737.331 642.5,737.5C 640.631,738.624 638.631,739.457 636.5,740C 635.978,740.561 635.645,741.228 635.5,742C 636.34,743.171 637.173,744.338 638,745.5C 639.808,745.112 641.475,745.112 643,745.5C 643.991,744.061 645.324,743.061 647,742.5C 647.87,743.108 648.37,743.941 648.5,745C 647.101,747.238 647.768,747.905 650.5,747C 649.289,746.107 649.289,745.274 650.5,744.5C 653.342,743.19 656.008,742.356 658.5,742C 656.833,741.667 655.167,741.333 653.5,741C 656.089,739.343 658.756,739.009 661.5,740C 660.051,738.883 658.384,738.216 656.5,738C 659.586,734.983 663.252,733.983 667.5,735C 666.833,735.333 666.167,735.667 665.5,736C 665.381,737.281 665.881,738.448 667,739.5C 668.599,737.944 670.099,736.277 671.5,734.5C 673.14,736.43 675.14,737.263 677.5,737C 673.804,734.586 674.304,734.086 679,735.5C 679.456,734.256 678.956,733.423 677.5,733C 679.246,732.529 680.913,731.862 682.5,731C 681.304,730.346 681.304,729.846 682.5,729.5C 683.842,730.902 684.676,730.569 685,728.5C 686.824,729.749 686.657,730.915 684.5,732C 686.5,732.333 688.5,732.667 690.5,733C 689.833,733.333 689.167,733.667 688.5,734C 691.609,734.696 694.442,735.862 697,737.5C 700.073,736.142 703.24,734.975 706.5,734C 704.503,732.847 704.17,731.347 705.5,729.5C 706.795,730.098 708.128,730.598 709.5,731C 708.341,732.827 707.008,734.493 705.5,736C 707.224,736.448 707.891,737.282 707.5,738.5C 708.192,737.975 708.692,737.308 709,736.5C 709.374,737.416 709.874,738.25 710.5,739C 708.137,739.589 707.137,741.089 707.5,743.5C 709.993,743.671 711.826,742.671 713,740.5C 714.655,740.802 715.988,742.136 717,744.5C 717.5,744 718,743.5 718.5,743C 717.098,741.658 717.431,740.824 719.5,740.5C 720.966,741.135 722.3,741.969 723.5,743C 722.833,743.333 722.167,743.667 721.5,744C 722.766,744.309 723.933,744.809 725,745.5C 726.294,744.146 726.46,742.812 725.5,741.5C 727.834,740.666 729.834,739.333 731.5,737.5C 732.5,737.833 733.167,738.5 733.5,739.5C 731.728,742.56 729.395,745.06 726.5,747C 728.025,748.009 729.692,748.509 731.5,748.5C 731.5,749.5 731.5,750.5 731.5,751.5C 733.103,751.688 734.437,751.188 735.5,750C 733.157,748.192 732.49,746.026 733.5,743.5C 739.052,739.395 743.719,734.895 747.5,730C 746.41,727.03 744.744,726.697 742.5,729C 743.28,730.073 743.113,731.24 742,732.5C 741.25,731.874 740.416,731.374 739.5,731C 741.038,728.222 743.371,726.389 746.5,725.5C 746.154,724.304 745.654,724.304 745,725.5C 744.333,724.5 744.333,723.5 745,722.5C 745.667,723.833 746.333,723.833 747,722.5C 747.449,725.132 748.283,727.632 749.5,730C 748.768,731.765 747.435,732.932 745.5,733.5C 745.846,734.696 746.346,734.696 747,733.5C 747.333,734.833 747.667,736.167 748,737.5C 748.748,735.668 749.748,734.001 751,732.5C 751.173,738.016 751.673,743.349 752.5,748.5C 752.216,750.415 752.549,752.081 753.5,753.5C 751.192,762.808 745.858,769.808 737.5,774.5C 733.845,773.512 730.179,774.012 726.5,776C 584.833,776.667 443.167,776.667 301.5,776C 299.618,775.802 297.952,775.302 296.5,774.5C 296.344,773.502 296.844,772.502 298,771.5C 299.388,772.554 300.888,772.72 302.5,772C 301.572,771.612 300.905,770.945 300.5,770C 302.042,767.232 304.042,764.898 306.5,763C 303.997,761.216 303.997,759.549 306.5,758C 305.5,757.667 304.5,757.333 303.5,757C 305.657,755.915 305.824,754.749 304,753.5C 301.851,756.446 300.018,756.613 298.5,754C 304.187,749.311 309.521,744.311 314.5,739C 313.5,738 312.5,737 311.5,736C 312.191,734.933 312.691,733.766 313,732.5C 314.177,733.318 315.51,734.318 317,735.5C 319.534,733.388 322.201,731.388 325,729.5C 325.658,731.108 325.158,732.275 323.5,733C 327.5,733.667 327.5,734.333 323.5,735C 327.051,737.226 328.718,736.059 328.5,731.5C 331.5,731.833 332.833,730.5 332.5,727.5C 333.5,727.5 334.5,727.5 335.5,727.5C 335.343,728.873 335.51,730.207 336,731.5C 336.741,732.641 337.575,732.641 338.5,731.5C 339.187,733.274 340.02,734.941 341,736.5C 341.333,735.5 341.667,734.5 342,733.5C 342.923,734.759 343.757,736.092 344.5,737.5C 347.603,736.314 350.603,734.98 353.5,733.5C 354.912,734.806 356.579,735.64 358.5,736C 359.28,737.073 359.113,738.24 358,739.5C 357.667,739.167 357.333,738.833 357,738.5C 356.5,739.667 355.667,740.5 354.5,741C 355.167,741.333 355.833,741.667 356.5,742C 355.346,742.914 355.513,743.747 357,744.5C 358.797,741.904 360.131,742.237 361,745.5C 361.5,745 362,744.5 362.5,744C 360.74,743.035 360.406,741.868 361.5,740.5C 363.697,742.358 365.031,744.692 365.5,747.5C 363.645,747.272 362.812,747.939 363,749.5C 366.013,748.3 368.847,747.466 371.5,747C 370.322,746.033 368.989,745.533 367.5,745.5C 369.991,744.459 369.991,743.626 367.5,743C 368.766,742.691 369.933,742.191 371,741.5C 370.667,745.833 371.667,746.167 374,742.5C 374.667,746.5 375.333,746.5 376,742.5C 376.667,743.833 377.333,743.833 378,742.5C 378.333,743.167 378.667,743.833 379,744.5C 382.383,743.416 384.549,741.749 385.5,739.5C 387.5,740 389.5,740.5 391.5,741C 386.288,743.414 386.622,743.914 392.5,742.5C 392.33,741.178 392.663,740.011 393.5,739C 390.057,738.779 389.724,737.779 392.5,736C 391.069,735.535 389.903,734.701 389,733.5C 387.605,734.815 386.605,734.481 386,732.5C 385.667,732.833 385.333,733.167 385,733.5C 384.691,732.234 384.191,731.067 383.5,730C 384.167,729.667 384.833,729.333 385.5,729C 383.919,728.293 382.419,727.46 381,726.5C 378.871,727.863 378.371,727.529 379.5,725.5C 378.271,724.719 376.938,724.219 375.5,724C 377.167,723.667 378.833,723.333 380.5,723C 379.483,721.951 379.316,720.784 380,719.5C 380.333,719.833 380.667,720.167 381,720.5C 383.045,719.113 385.212,717.946 387.5,717C 385.775,717.409 384.108,717.242 382.5,716.5C 383.729,715.719 385.062,715.219 386.5,715C 385.833,714.667 385.167,714.333 384.5,714C 387.523,711.814 390.857,710.814 394.5,711C 390.565,713.382 390.898,713.882 395.5,712.5C 397,712.453 398,713.119 398.5,714.5C 395.02,716.453 391.354,717.953 387.5,719C 388.939,719.991 389.939,721.324 390.5,723C 389.975,723.692 389.308,724.192 388.5,724.5C 388.167,723.833 387.833,723.167 387.5,722.5C 386.738,723.628 386.071,724.795 385.5,726C 386.667,726.5 387.5,727.333 388,728.5C 389.707,727.541 391.541,726.875 393.5,726.5C 395.538,727.634 397.538,727.634 399.5,726.5C 399.296,727.529 399.796,728.529 401,729.5C 401.196,727.714 402.029,726.381 403.5,725.5C 403.489,726.441 403.989,727.108 405,727.5C 407.077,726.983 409.077,726.316 411,725.5C 411.309,726.766 411.809,727.933 412.5,729C 410.754,729.471 409.087,730.138 407.5,731C 408.833,731.333 410.167,731.667 411.5,732C 409.314,733.309 407.147,733.476 405,732.5C 402.645,735.628 403.145,736.795 406.5,736C 405.366,737.016 405.699,737.683 407.5,738C 405.588,739.2 404.255,740.867 403.5,743C 404.5,743.667 405.5,743.667 406.5,743C 405.59,740.71 406.59,739.544 409.5,739.5C 410.836,740.423 412.17,740.923 413.5,741C 412.289,740.107 412.289,739.274 413.5,738.5C 415.167,737.667 416.833,736.833 418.5,736C 417.167,735.667 415.833,735.333 414.5,735C 416.101,734.727 417.601,734.227 419,733.5C 419.454,735.536 420.287,737.37 421.5,739C 418.787,742.623 419.62,743.79 424,742.5C 426.632,738.936 425.799,736.769 421.5,736C 424.463,734.15 427.463,734.15 430.5,736C 429.167,737 429.167,738 430.5,739C 429.258,739.311 428.258,738.811 427.5,737.5C 425.947,739.265 425.614,741.098 426.5,743C 424.779,743.739 423.113,744.573 421.5,745.5C 424.759,748.272 426.759,747.939 427.5,744.5C 431.418,746.653 431.084,748.319 426.5,749.5C 426.919,750.672 427.585,751.672 428.5,752.5C 430.539,751.723 431.205,750.557 430.5,749C 433.562,747.939 436.062,746.106 438,743.5C 439.951,745.137 439.784,746.637 437.5,748C 438.935,747.689 440.268,747.855 441.5,748.5C 443.907,744.317 447.241,742.317 451.5,742.5C 449.345,743.41 447.345,744.577 445.5,746C 446.579,746.956 447.745,747.789 449,748.5C 451.069,745.685 453.569,743.352 456.5,741.5C 457.711,740.28 457.711,739.113 456.5,738C 458.888,737.697 461.055,736.863 463,735.5C 463.614,733.687 463.281,733.353 462,734.5C 461.692,733.692 461.192,733.025 460.5,732.5C 458.253,733.819 456.587,736.152 455.5,739.5C 454.5,739.5 453.5,739.5 452.5,739.5C 455.126,734.352 458.793,729.852 463.5,726C 462.833,725.667 462.167,725.333 461.5,725C 463.878,724.489 466.212,723.822 468.5,723C 464.61,721.274 461.61,722.441 459.5,726.5C 458.277,727.614 456.944,727.781 455.5,727C 457.899,725.04 458.065,722.874 456,720.5C 455.237,723.063 454.737,723.063 454.5,720.5C 455.286,718.429 456.619,716.762 458.5,715.5C 457.975,714.808 457.308,714.308 456.5,714C 456.833,713.667 457.167,713.333 457.5,713C 455.766,714.148 453.766,715.315 451.5,716.5C 450.833,717.5 450.167,718.5 449.5,719.5C 449.167,719 448.833,718.5 448.5,718C 450.309,715.191 452.476,712.691 455,710.5C 455.483,709.552 455.649,708.552 455.5,707.5C 456.6,705.95 454.934,706.45 450.5,709C 451.641,709.741 451.641,710.575 450.5,711.5C 447.709,712.265 445.709,713.599 444.5,715.5C 443.833,715.333 443.167,715.167 442.5,715C 445.264,711.781 448.264,708.781 451.5,706C 450.258,702.643 449.424,702.81 449,706.5C 448.667,706.167 448.333,705.833 448,705.5C 446.934,707.099 445.434,708.099 443.5,708.5C 442.738,709.628 442.071,710.795 441.5,712C 438.718,712.183 438.051,711.016 439.5,708.5C 441.389,707.396 443.055,706.063 444.5,704.5C 443.318,702.355 441.818,702.355 440,704.5C 440.207,701.209 440.041,698.042 439.5,695C 441.712,691.561 444.379,688.561 447.5,686C 446.167,685.333 446.167,684.667 447.5,684C 446.5,683.333 445.5,683.333 444.5,684C 443.667,686.167 442.167,687.667 440,688.5C 439.5,688 439,687.5 438.5,687C 441.983,683.517 445.483,680.017 449,676.5C 449.667,675.833 449.667,675.167 449,674.5C 447.59,673.213 446.09,672.046 444.5,671C 445.449,670.383 446.282,670.549 447,671.5C 447.513,669.479 448.68,667.979 450.5,667C 448.812,664.274 447.312,661.441 446,658.5C 445,656.833 443.667,655.5 442,654.5C 439.167,657.5 436.333,660.5 433.5,663.5C 432.702,661.922 432.202,660.256 432,658.5C 429.785,659.82 428.285,659.153 427.5,656.5C 430.175,651.553 429.508,651.219 425.5,655.5C 424.196,652.908 422.196,651.075 419.5,650C 422.363,648.257 424.196,645.757 425,642.5C 425.333,642.833 425.667,643.167 426,643.5C 428.096,642.285 427.929,641.451 425.5,641C 427.333,640.5 428.5,639.333 429,637.5C 429.308,638.308 429.808,638.975 430.5,639.5C 431.631,637.926 431.798,636.259 431,634.5C 430,635.833 429,635.833 428,634.5C 426.527,636.294 425.694,637.96 425.5,639.5C 424.17,637.653 424.503,636.153 426.5,635C 425.41,632.03 423.744,631.697 421.5,634C 421.833,635 422.167,636 422.5,637C 422,637.5 421.5,638 421,638.5C 420.691,637.234 420.191,636.067 419.5,635C 422.134,632.03 424.467,629.364 426.5,627C 424.819,623.534 423.819,623.7 423.5,627.5C 422.127,627.343 420.793,627.51 419.5,628C 419.833,628.333 420.167,628.667 420.5,629C 419.406,630.78 418.406,632.614 417.5,634.5C 415.799,634.81 414.132,634.31 412.5,633C 413.833,632.333 414.833,631.333 415.5,630C 413.776,629.552 413.109,628.718 413.5,627.5C 410.473,629.86 407.806,632.527 405.5,635.5C 404.571,634.311 404.238,632.978 404.5,631.5C 408.541,631.426 409.208,630.093 406.5,627.5C 404.45,628.077 403.45,629.41 403.5,631.5C 402.127,631.657 400.793,631.49 399.5,631C 400.833,630 400.833,629 399.5,628C 397.576,627.821 395.909,627.654 394.5,627.5C 396.335,626.572 396.668,625.406 395.5,624C 397.044,623.71 398.377,623.044 399.5,622C 396.899,621.08 394.232,620.413 391.5,620C 394.082,617.216 393.749,615.716 390.5,615.5C 392.173,613.477 392.84,611.144 392.5,608.5C 393.822,608.33 394.989,608.663 396,609.5C 396.807,607.423 397.974,605.589 399.5,604C 398.5,603.333 397.5,603.333 396.5,604C 395.778,606.741 394.112,607.741 391.5,607C 392.257,605.488 393.257,604.154 394.5,603C 393.167,602 393.167,601 394.5,600C 393.262,600.077 392.262,599.911 391.5,599.5C 392.79,596.345 395.123,594.345 398.5,593.5C 398.291,592.914 397.957,592.414 397.5,592C 399.985,590.777 400.152,589.277 398,587.5C 393.304,588.914 392.804,588.414 396.5,586C 395.167,584.16 395.334,583.66 397,584.5C 400.462,581.467 400.129,580.133 396,580.5C 395.37,578.097 396.203,576.263 398.5,575C 396.109,574.309 396.109,573.309 398.5,572C 396.874,572.195 395.207,572.195 393.5,572C 395.891,570.691 395.891,569.691 393.5,569C 395.5,568.167 397.5,567.333 399.5,566.5C 398.738,566.089 397.738,565.923 396.5,566C 398.001,564.748 399.668,563.748 401.5,563C 400.313,561.981 399.313,560.814 398.5,559.5C 400.724,558.256 402.39,555.923 403.5,552.5C 404.665,551.416 405.998,550.583 407.5,550C 406.833,549.667 406.167,549.333 405.5,549C 407.595,548.444 407.762,547.944 406,547.5C 402.172,549.18 401.339,548.68 403.5,546C 401.956,544.813 400.289,544.48 398.5,545C 399.833,545.667 399.833,546.333 398.5,547C 397.5,547.667 396.5,547.667 395.5,547C 396.982,545.017 398.649,543.184 400.5,541.5C 401.086,541.709 401.586,542.043 402,542.5C 404.096,541.285 403.929,540.451 401.5,540C 402.641,539.259 402.641,538.425 401.5,537.5C 403.274,536.813 404.941,535.98 406.5,535C 405.833,534.667 405.167,534.333 404.5,534C 405.119,531.456 404.619,528.956 403,526.5C 400.054,529.543 398.888,528.876 399.5,524.5C 402.205,524.62 402.872,523.62 401.5,521.5C 403.298,519.668 405.132,519.335 407,520.5C 409.481,523.709 408.648,525.542 404.5,526C 406.689,526.677 407.022,527.844 405.5,529.5C 406.556,532.239 408.223,532.739 410.5,531C 408.109,530.309 408.109,529.309 410.5,528C 412.9,526.943 415.233,526.276 417.5,526C 416.833,525.333 416.167,524.667 415.5,524C 418.49,523.153 419.824,524.32 419.5,527.5C 420.552,527.649 421.552,527.483 422.5,527C 423.634,525.984 423.301,525.317 421.5,525C 423.351,524.163 425.184,523.329 427,522.5C 427.483,521.552 427.649,520.552 427.5,519.5C 428.552,519.649 429.552,519.483 430.5,519C 433.3,514.562 434.633,514.728 434.5,519.5C 437.95,520.244 439.616,518.91 439.5,515.5C 441.308,515.509 442.975,515.009 444.5,514C 442.037,511.688 439.704,512.188 437.5,515.5C 435.891,513.06 433.557,511.893 430.5,512C 380.168,511.5 329.834,511.333 279.5,511.5C 279.829,592.695 279.496,673.862 278.5,755C 279.811,758.431 280.811,761.931 281.5,765.5C 278.181,761.856 276.181,757.523 275.5,752.5C 276.499,670.668 276.833,588.668 276.5,506.5C 435.167,506.5 593.833,506.5 752.5,506.5C 752.5,508.167 752.5,509.833 752.5,511.5 Z"/></g>
<g><path style="opacity:1" fill="#8a2929" d="M 499.5,527.5 C 535.397,523.541 563.564,536.207 584,565.5C 600.071,596.634 599.071,627.301 581,657.5C 563.667,689.516 544.333,720.183 523,749.5C 519.392,755.232 514.559,756.732 508.5,754C 479.911,717.014 455.744,677.18 436,634.5C 424.542,579.185 445.708,543.519 499.5,527.5 Z"/></g>
<g><path style="opacity:1" fill="#f5b959" d="M 503.5,569.5 C 527.155,566.7 542.988,576.367 551,598.5C 553.568,620.207 544.734,635.04 524.5,643C 501.253,647.414 485.42,638.581 477,616.5C 473.362,593.775 482.195,578.108 503.5,569.5 Z"/></g>
<g><path style="opacity:0.919" fill="#7f1e1c" d="M 930.5,247.5 C 930.5,248.167 930.833,248.5 931.5,248.5C 931.5,251.5 931.5,254.5 931.5,257.5C 931.821,428.843 931.488,600.177 930.5,771.5C 929.71,770.391 929.21,769.058 929,767.5C 928.833,680.833 928.667,594.167 928.5,507.5C 928.5,420.497 929.167,333.831 930.5,247.5 Z"/></g>
<g><path style="opacity:1" fill="#f7c265" d="M 291.5,774.5 C 293.05,773.28 294.716,773.28 296.5,774.5C 297.952,775.302 299.618,775.802 301.5,776C 443.167,776.667 584.833,776.667 726.5,776C 730.179,774.012 733.845,773.512 737.5,774.5C 733.954,775.959 730.288,777.126 726.5,778C 584.5,778.667 442.5,778.667 300.5,778C 297.353,777.119 294.353,775.953 291.5,774.5 Z"/></g>
<g><path style="opacity:0.2" fill="#f2f0ed" d="M 91.5,767.5 C 92.4883,777.801 94.1549,788.135 96.5,798.5C 111.776,862.44 150.776,904.107 213.5,923.5C 225.31,927.062 237.31,929.728 249.5,931.5C 247.821,931.892 246.154,932.392 244.5,933C 245.888,933.889 245.722,934.389 244,934.5C 233.894,932.206 223.727,930.039 213.5,928C 212.333,927.5 211.5,926.667 211,925.5C 208.602,926.1 205.935,926.1 203,925.5C 201,924.167 199,922.833 197,921.5C 196.005,922.066 195.172,922.733 194.5,923.5C 142.296,900.803 108.463,862.136 93,807.5C 92.1436,801.807 91.3103,796.141 90.5,790.5C 90.8886,782.836 91.222,775.17 91.5,767.5 Z"/></g>
<g><path style="opacity:0.018" fill="#ece6e3" d="M 931.5,257.5 C 932.333,425.333 932.833,593.333 933,761.5C 933.374,762.416 933.874,763.25 934.5,764C 933.544,777.251 932.211,790.751 930.5,804.5C 927.327,820.211 921.827,835.211 914,849.5C 889.721,889.75 854.888,916.583 809.5,930C 804.475,931.187 799.475,932.353 794.5,933.5C 789.424,932.854 784.091,931.854 778.5,930.5C 798.568,927.646 817.902,921.979 836.5,913.5C 893.764,883.713 925.098,836.38 930.5,771.5C 931.488,600.177 931.821,428.843 931.5,257.5 Z"/></g>
<g><path style="opacity:0.191" fill="#f1e9e6" d="M 249.5,931.5 C 425.844,931.823 602.178,931.49 778.5,930.5C 784.091,931.854 789.424,932.854 794.5,933.5C 782.611,935.541 770.611,937.041 758.5,938C 592.5,938.667 426.5,938.667 260.5,938C 237.887,936.063 215.887,931.23 194.5,923.5C 195.172,922.733 196.005,922.066 197,921.5C 199,922.833 201,924.167 203,925.5C 205.935,926.1 208.602,926.1 211,925.5C 211.5,926.667 212.333,927.5 213.5,928C 223.727,930.039 233.894,932.206 244,934.5C 245.722,934.389 245.888,933.889 244.5,933C 246.154,932.392 247.821,931.892 249.5,931.5 Z"/></g>
<g><path style="opacity:0.971" fill="#7f2020" d="M 836.5,913.5 C 817.902,921.979 798.568,927.646 778.5,930.5C 602.178,931.49 425.844,931.823 249.5,931.5C 237.31,929.728 225.31,927.062 213.5,923.5C 215.17,923.249 216.67,922.582 218,921.5C 218.5,922.667 219.333,923.5 220.5,924C 226.776,925.353 233.109,926.353 239.5,927C 422.501,927.833 605.501,927.667 788.5,926.5C 790.111,924.228 791.111,922.061 791.5,920C 800.326,919.828 809.326,919.494 818.5,919C 822.29,916.77 826.29,915.103 830.5,914C 821.721,912.978 821.554,912.145 830,911.5C 832.61,911.533 834.777,912.2 836.5,913.5 Z"/></g>
<g><path style="opacity:0.346" fill="#f5f3ef" d="M 260.5,933.5 C 423.02,933.349 585.687,933.516 748.5,934C 749.308,934.308 749.975,934.808 750.5,935.5C 744.055,936.677 737.555,937.343 731,937.5C 641.633,936.658 552.799,936.658 464.5,937.5C 460.242,937.281 456.076,936.615 452,935.5C 449.53,935.34 447.364,936.007 445.5,937.5C 384.816,936.189 323.983,936.189 263,937.5C 262.097,936.299 260.931,935.465 259.5,935C 260.056,934.617 260.389,934.117 260.5,933.5 Z"/></g>
</svg>
